<svg xmlns="http://www.w3.org/2000/svg" xmlns:xlink="http://www.w3.org/1999/xlink" width="1366" height="368.992" viewBox="0 0 1366 368.992">
  <defs>
    <clipPath id="clip-path">
      <rect id="Rectangle_47" data-name="Rectangle 47" width="1365.997" height="287.809" fill="none" stroke="#2039ba" stroke-width="1"/>
    </clipPath>
    <clipPath id="clip-path-2">
      <rect id="Rectangle_48" data-name="Rectangle 48" width="1365.975" height="268.379" fill="none" stroke="#2039ba" stroke-width="1"/>
    </clipPath>
    <clipPath id="clip-path-3">
      <rect id="Rectangle_49" data-name="Rectangle 49" width="1365.946" height="249.463" fill="none" stroke="#2039ba" stroke-width="1"/>
    </clipPath>
    <clipPath id="clip-path-4">
      <rect id="Rectangle_50" data-name="Rectangle 50" width="1365.915" height="231.092" fill="none" stroke="#2039ba" stroke-width="1"/>
    </clipPath>
    <clipPath id="clip-path-5">
      <rect id="Rectangle_51" data-name="Rectangle 51" width="1365.884" height="213.47" fill="none" stroke="#323277" stroke-width="1"/>
    </clipPath>
    <clipPath id="clip-path-6">
      <rect id="Rectangle_52" data-name="Rectangle 52" width="1365.86" height="197.631" fill="none" stroke="#323277" stroke-width="1"/>
    </clipPath>
    <clipPath id="clip-path-7">
      <rect id="Rectangle_53" data-name="Rectangle 53" width="1365.828" height="184.055" fill="none" stroke="#323277" stroke-width="1"/>
    </clipPath>
    <clipPath id="clip-path-8">
      <rect id="Rectangle_54" data-name="Rectangle 54" width="1365.796" height="172.618" fill="none" stroke="#323277" stroke-width="1"/>
    </clipPath>
    <clipPath id="clip-path-9">
      <rect id="Rectangle_55" data-name="Rectangle 55" width="1365.762" height="162.936" fill="none" stroke="#323277" stroke-width="1"/>
    </clipPath>
    <clipPath id="clip-path-10">
      <rect id="Rectangle_56" data-name="Rectangle 56" width="1365.729" height="154.588" fill="none" stroke="#323277" stroke-width="1"/>
    </clipPath>
    <clipPath id="clip-path-11">
      <rect id="Rectangle_57" data-name="Rectangle 57" width="1365.695" height="147.232" fill="none" stroke="#323277" stroke-width="1"/>
    </clipPath>
    <clipPath id="clip-path-12">
      <rect id="Rectangle_58" data-name="Rectangle 58" width="1365.661" height="140.779" fill="none" stroke="#323277" stroke-width="1"/>
    </clipPath>
    <clipPath id="clip-path-13">
      <rect id="Rectangle_59" data-name="Rectangle 59" width="1365.626" height="149.031" fill="none" stroke="#323277" stroke-width="1"/>
    </clipPath>
    <clipPath id="clip-path-14">
      <rect id="Rectangle_60" data-name="Rectangle 60" width="1365.591" height="160.88" fill="none" stroke="#c6350b" stroke-width="1"/>
    </clipPath>
    <clipPath id="clip-path-15">
      <rect id="Rectangle_61" data-name="Rectangle 61" width="1365.555" height="174.225" fill="none" stroke="#c6350b" stroke-width="1"/>
    </clipPath>
    <clipPath id="clip-path-16">
      <rect id="Rectangle_62" data-name="Rectangle 62" width="1365.52" height="188.687" fill="none" stroke="#c6350b" stroke-width="1"/>
    </clipPath>
    <clipPath id="clip-path-17">
      <rect id="Rectangle_63" data-name="Rectangle 63" width="1365.484" height="203.86" fill="none" stroke="#de4013" stroke-width="1"/>
    </clipPath>
    <clipPath id="clip-path-18">
      <rect id="Rectangle_64" data-name="Rectangle 64" width="1365.448" height="219.551" fill="none" stroke="#de4013" stroke-width="1"/>
    </clipPath>
    <clipPath id="clip-path-19">
      <rect id="Rectangle_65" data-name="Rectangle 65" width="1365.416" height="237.317" fill="none" stroke="#de4013" stroke-width="1"/>
    </clipPath>
    <clipPath id="clip-path-20">
      <rect id="Rectangle_66" data-name="Rectangle 66" width="1365.423" height="256.001" fill="none" stroke="#de4013" stroke-width="1"/>
    </clipPath>
    <clipPath id="clip-path-21">
      <rect id="Rectangle_67" data-name="Rectangle 67" width="1365.431" height="274.915" fill="none" stroke="#e55c16" stroke-width="1"/>
    </clipPath>
    <clipPath id="clip-path-22">
      <rect id="Rectangle_68" data-name="Rectangle 68" width="1365.438" height="294.014" fill="none" stroke="#e55c16" stroke-width="1"/>
    </clipPath>
  </defs>
  <g id="Group_164" data-name="Group 164" transform="translate(7897 -2117.372)" opacity="0.372">
    <g id="Group_49" data-name="Group 49" transform="translate(-7897 2117.372)">
      <g id="Group_48" data-name="Group 48">
        <g id="Group_47" data-name="Group 47" clip-path="url(#clip-path)">
          <path id="Path_98" data-name="Path 98" d="M.482,188.867c146.38,80.506,289.578-145.088,453.991-150.4S679.207,239.54,891.78,283.312,1150.81,3.983,1366.129,1" transform="translate(-0.14 -0.29)" fill="none" stroke="#2039ba" stroke-miterlimit="10" stroke-width="2"/>
        </g>
      </g>
    </g>
    <g id="Group_52" data-name="Group 52" transform="translate(-7896.985 2130.169)">
      <g id="Group_51" data-name="Group 51" transform="translate(0 0)">
        <g id="Group_50" data-name="Group 50" clip-path="url(#clip-path-2)">
          <path id="Path_99" data-name="Path 99" d="M.482,196.659c97.568,50.66,192.442-17.3,295.851-82.471C347.871,81.77,399.916,55.126,454.418,53.121c78.154-2.8,133.5,43.026,195.1,97.846C716.607,210.5,783.64,267.188,890.419,283.74c46.5,7.093,85.163-3.246,120.209-22.4,120.15-65.765,185.573-238.22,355.483-242.319" transform="translate(-0.155 -18.315)" fill="none" stroke="#2039ba" stroke-miterlimit="10" stroke-width="2"/>
        </g>
      </g>
    </g>
    <g id="Group_55" data-name="Group 55" transform="translate(-7896.97 2142.966)">
      <g id="Group_54" data-name="Group 54" transform="translate(0 0)">
        <g id="Group_53" data-name="Group 53" clip-path="url(#clip-path-3)">
          <path id="Path_100" data-name="Path 100" d="M.482,204.452c97.58,47.666,191.187-5.96,296.055-73.847C348.587,97.021,400.2,70.012,454.363,67.772c76.981-3.047,132.583,41.9,196.122,97.58,70.191,61.19,135,108.622,238.573,118.817,45.123,4.442,83.029-7.606,118.28-26.411,120.386-64.428,185.776-214.822,358.754-220.709" transform="translate(-0.17 -36.339)" fill="none" stroke="#2039ba" stroke-miterlimit="10" stroke-width="2"/>
        </g>
      </g>
    </g>
    <g id="Group_58" data-name="Group 58" transform="translate(-7896.953 2155.763)">
      <g id="Group_57" data-name="Group 57" transform="translate(0 0)">
        <g id="Group_56" data-name="Group 56" clip-path="url(#clip-path-4)">
          <path id="Path_101" data-name="Path 101" d="M.482,212.244c97.592,44.673,189.932,5.384,296.259-65.223,52.563-34.75,103.741-62.124,157.567-64.6,75.808-3.291,131.665,40.767,197.146,97.313C724.747,242.585,787.365,280.626,887.7,284.6c43.765,1.733,80.9-11.966,116.351-30.424,120.623-63.09,185.979-191.425,362.024-199.1" transform="translate(-0.186 -54.364)" fill="none" stroke="#2039ba" stroke-miterlimit="10" stroke-width="2"/>
        </g>
      </g>
    </g>
    <g id="Group_61" data-name="Group 61" transform="translate(-7896.937 2168.56)">
      <g id="Group_60" data-name="Group 60" transform="translate(0 0)">
        <g id="Group_59" data-name="Group 59" clip-path="url(#clip-path-5)">
          <path id="Path_102" data-name="Path 102" d="M.482,220.036c97.6,41.68,188.677,16.73,296.463-56.6,53.075-35.915,103.82-63.655,157.308-66.363,74.635-3.534,130.627,39.777,198.168,97.047,76.262,64.665,136.84,93.147,233.916,90.905,42.414-.979,78.761-16.326,114.422-34.439C1121.618,188.836,1186.941,82.56,1366.053,73.1" transform="translate(-0.203 -72.388)" fill="none" stroke="#323277" stroke-miterlimit="10" stroke-width="2"/>
        </g>
      </g>
    </g>
    <g id="Group_64" data-name="Group 64" transform="translate(-7896.919 2181.357)">
      <g id="Group_63" data-name="Group 63" transform="translate(0 0)">
        <g id="Group_62" data-name="Group 62" clip-path="url(#clip-path-6)">
          <path id="Path_103" data-name="Path 103" d="M.482,227.829C98.1,266.515,187.9,255.9,297.149,179.854c53.588-37.081,103.9-65.185,157.05-68.129,73.462-3.777,129.694,38.667,199.191,96.78,79.344,66.347,137.783,85.394,231.587,76.949,41.071-3.7,76.628-20.686,112.493-38.452,121.1-60.414,186.384-144.63,368.563-155.881" transform="translate(-0.22 -90.413)" fill="none" stroke="#323277" stroke-miterlimit="10" stroke-width="2"/>
        </g>
      </g>
    </g>
    <g id="Group_67" data-name="Group 67" transform="translate(-7896.901 2194.154)">
      <g id="Group_66" data-name="Group 66" transform="translate(0)">
        <g id="Group_65" data-name="Group 65" clip-path="url(#clip-path-7)">
          <path id="Path_104" data-name="Path 104" d="M.482,235.621c97.629,35.692,186.167,39.419,296.871-39.351,54.1-38.247,103.972-66.836,156.791-69.894,72.28-4.185,128.764,37.552,200.214,96.513,82.433,68.025,138.741,77.624,229.259,62.994,39.733-6.422,74.494-25.046,110.564-42.466,121.332-59.076,186.587-121.232,371.834-134.271" transform="translate(-0.238 -108.437)" fill="none" stroke="#323277" stroke-miterlimit="10" stroke-width="2"/>
        </g>
      </g>
    </g>
    <g id="Group_70" data-name="Group 70" transform="translate(-7896.884 2206.951)">
      <g id="Group_69" data-name="Group 69" transform="translate(0 0)">
        <g id="Group_68" data-name="Group 68" clip-path="url(#clip-path-8)">
          <path id="Path_105" data-name="Path 105" d="M.482,243.413c97.641,32.7,184.912,50.764,297.074-30.727,54.614-39.413,104.05-68.379,156.533-71.659,71.106-4.444,127.838,36.433,201.237,96.247,85.525,69.7,139.709,69.833,226.931,49.038,38.4-9.155,72.36-29.406,108.635-46.48C1112.46,182.094,1177.683,142,1366,127.17" transform="translate(-0.256 -126.462)" fill="none" stroke="#323277" stroke-miterlimit="10" stroke-width="2"/>
        </g>
      </g>
    </g>
    <g id="Group_73" data-name="Group 73" transform="translate(-7896.864 2219.749)">
      <g id="Group_72" data-name="Group 72" transform="translate(0 0)">
        <g id="Group_71" data-name="Group 71" clip-path="url(#clip-path-9)">
          <path id="Path_106" data-name="Path 106" d="M.482,251.206c97.653,29.705,183.657,62.109,297.278-22.1,55.127-40.578,104.128-69.921,156.274-73.425,69.931-4.7,126.916,35.31,202.26,95.981,88.622,71.365,140.685,62.017,224.6,35.082,37.072-11.9,70.227-33.766,106.707-50.494,121.8-56.4,186.993-74.437,378.374-91.052" transform="translate(-0.275 -144.487)" fill="none" stroke="#323277" stroke-miterlimit="10" stroke-width="2"/>
        </g>
      </g>
    </g>
    <g id="Group_76" data-name="Group 76" transform="translate(-7896.845 2232.546)">
      <g id="Group_75" data-name="Group 75" transform="translate(0 0)">
        <g id="Group_74" data-name="Group 74" clip-path="url(#clip-path-10)">
          <path id="Path_107" data-name="Path 107" d="M.482,259c97.665,26.711,182.4,73.454,297.482-13.479,55.64-41.744,104.206-71.46,156.015-75.19,68.757-4.951,126,34.182,203.283,95.714,91.722,73.028,141.662,54.176,222.274,21.126,35.744-14.655,68.093-38.126,104.778-54.508,122.041-55.062,187.2-51.039,381.644-69.442" transform="translate(-0.295 -162.512)" fill="none" stroke="#323277" stroke-miterlimit="10" stroke-width="2"/>
        </g>
      </g>
    </g>
    <g id="Group_79" data-name="Group 79" transform="translate(-7896.825 2245.343)">
      <g id="Group_78" data-name="Group 78" transform="translate(0 0)">
        <g id="Group_77" data-name="Group 77" clip-path="url(#clip-path-11)">
          <path id="Path_108" data-name="Path 108" d="M.482,266.791c97.677,23.718,181.147,84.8,297.686-4.855,56.152-42.91,104.284-73,155.757-76.956,67.583-5.2,125.082,33.051,204.305,95.448,94.826,74.686,142.634,46.308,219.946,7.169,34.413-17.421,65.959-42.486,102.849-58.521,122.277-53.725,187.4-27.641,384.915-47.834" transform="translate(-0.314 -180.537)" fill="none" stroke="#323277" stroke-miterlimit="10" stroke-width="2"/>
        </g>
      </g>
    </g>
    <g id="Group_82" data-name="Group 82" transform="translate(-7896.806 2257.976)">
      <g id="Group_81" data-name="Group 81" transform="translate(0 0)">
        <g id="Group_80" data-name="Group 80" clip-path="url(#clip-path-12)">
          <path id="Path_109" data-name="Path 109" d="M.482,274.517c97.689,20.724,179.892,96.143,297.89,3.769,56.665-44.076,104.362-74.53,155.5-78.722,66.408-5.443,124.168,31.916,205.328,95.182,97.933,76.34,143.6,38.416,217.617-6.787,33.078-20.2,63.826-46.847,100.921-62.536,122.514-52.387,187.6-4.243,388.185-26.223" transform="translate(-0.335 -198.332)" fill="none" stroke="#323277" stroke-miterlimit="10" stroke-width="2"/>
        </g>
      </g>
    </g>
    <g id="Group_85" data-name="Group 85" transform="translate(-7896.784 2256.459)">
      <g id="Group_84" data-name="Group 84" transform="translate(0 0)">
        <g id="Group_83" data-name="Group 83" clip-path="url(#clip-path-13)">
          <path id="Path_110" data-name="Path 110" d="M.482,276.463c97.7,17.731,178.637,107.488,298.094,12.393,57.177-45.241,104.44-76.061,155.239-80.487,65.236-5.685,123.257,30.778,206.351,94.915,101.043,77.99,144.54,30.5,215.289-20.742,31.735-22.986,61.693-51.207,98.992-66.549,122.75-51.049,187.8,19.154,391.455-4.615" transform="translate(-0.355 -196.196)" fill="none" stroke="#323277" stroke-miterlimit="10" stroke-width="2"/>
        </g>
      </g>
    </g>
    <g id="Group_88" data-name="Group 88" transform="translate(-7896.764 2251.773)">
      <g id="Group_87" data-name="Group 87" transform="translate(0 0)">
        <g id="Group_86" data-name="Group 86" clip-path="url(#clip-path-14)">
          <path id="Path_111" data-name="Path 111" d="M.482,277.114c97.714,14.737,177.382,118.833,298.3,21.017,57.691-46.407,104.519-77.588,154.98-82.252,64.062-5.921,122.348,29.638,207.375,94.649,104.155,79.637,145.464,22.574,212.96-34.7,30.383-25.78,59.559-55.567,97.064-70.563,122.987-49.711,188.007,42.551,394.724,17" transform="translate(-0.376 -189.595)" fill="none" stroke="#c6350b" stroke-miterlimit="10" stroke-width="2"/>
        </g>
      </g>
    </g>
    <g id="Group_91" data-name="Group 91" transform="translate(-7896.742 2245.838)">
      <g id="Group_90" data-name="Group 90" transform="translate(0)">
        <g id="Group_89" data-name="Group 89" clip-path="url(#clip-path-15)">
          <path id="Path_112" data-name="Path 112" d="M.482,277.254C98.208,289,176.609,407.432,298.983,306.895c58.2-47.573,104.6-79.113,154.722-84.018,62.889-6.154,121.56,28.338,208.4,94.383,107.416,81.086,146.368,14.634,210.632-48.654,29.021-28.581,57.425-59.927,95.135-74.577,123.223-48.373,188.21,65.949,398,38.6" transform="translate(-0.397 -181.235)" fill="none" stroke="#c6350b" stroke-miterlimit="10" stroke-width="2"/>
        </g>
      </g>
    </g>
    <g id="Group_94" data-name="Group 94" transform="translate(-7896.721 2239.146)">
      <g id="Group_93" data-name="Group 93" transform="translate(0 0)">
        <g id="Group_92" data-name="Group 92" clip-path="url(#clip-path-16)">
          <path id="Path_113" data-name="Path 113" d="M.482,277.085c97.738,8.75,174.871,141.523,298.705,38.265,58.716-48.738,104.678-80.633,154.463-85.782,61.716-6.383,120.641,27.207,209.42,94.116,110.518,82.744,147.247,6.689,208.3-62.61,27.649-31.382,55.291-64.286,93.206-78.591,123.46-47.035,188.413,89.347,401.265,60.214" transform="translate(-0.419 -171.809)" fill="none" stroke="#c6350b" stroke-miterlimit="10" stroke-width="2"/>
        </g>
      </g>
    </g>
    <g id="Group_97" data-name="Group 97" transform="translate(-7896.699 2231.956)">
      <g id="Group_96" data-name="Group 96" transform="translate(0 0)">
        <g id="Group_95" data-name="Group 95" clip-path="url(#clip-path-17)">
          <path id="Path_114" data-name="Path 114" d="M.482,276.712C98.232,282.469,174.1,429.58,299.391,323.6c59.229-49.9,104.758-82.151,154.2-87.548,60.545-6.608,119.722,26.078,210.442,93.85,113.621,84.4,148.107-1.255,205.975-76.565,26.268-34.185,53.158-68.647,91.277-82.605,123.7-45.7,188.616,112.744,404.536,81.823" transform="translate(-0.44 -161.683)" fill="none" stroke="#de4013" stroke-miterlimit="10" stroke-width="2"/>
        </g>
      </g>
    </g>
    <g id="Group_100" data-name="Group 100" transform="translate(-7896.678 2224.424)">
      <g id="Group_99" data-name="Group 99" transform="translate(0 0)">
        <g id="Group_98" data-name="Group 98" clip-path="url(#clip-path-18)">
          <path id="Path_115" data-name="Path 115" d="M.482,276.2c97.763,2.763,172.362,164.213,299.113,55.513,59.742-51.07,104.839-83.665,153.946-89.314,59.374-6.828,118.8,24.948,211.466,93.583,116.723,86.061,148.946-9.2,203.646-90.521,24.877-36.986,51.024-73.008,89.348-86.619,123.933-44.36,188.819,136.142,407.806,103.433" transform="translate(-0.462 -151.073)" fill="none" stroke="#de4013" stroke-miterlimit="10" stroke-width="2"/>
        </g>
      </g>
    </g>
    <g id="Group_103" data-name="Group 103" transform="translate(-7896.659 2216.642)">
      <g id="Group_102" data-name="Group 102" transform="translate(0 0)">
        <g id="Group_101" data-name="Group 101" clip-path="url(#clip-path-19)">
          <path id="Path_116" data-name="Path 116" d="M.482,275.587c97.775-.231,171.106,175.557,299.317,64.137,60.254-52.235,104.93-85.087,153.687-91.079,58.216-6.941,117.885,23.818,212.488,93.316,119.825,87.719,149.77-17.13,201.319-104.477,23.478-39.783,48.89-77.368,87.419-90.633,124.169-43.021,189.021,159.54,411.076,125.043" transform="translate(-0.48 -140.113)" fill="none" stroke="#de4013" stroke-miterlimit="10" stroke-width="2"/>
        </g>
      </g>
    </g>
    <g id="Group_106" data-name="Group 106" transform="translate(-7896.682 2208.676)">
      <g id="Group_105" data-name="Group 105" transform="translate(0 0)">
        <g id="Group_104" data-name="Group 104" clip-path="url(#clip-path-20)">
          <path id="Path_117" data-name="Path 117" d="M.482,274.9C98.269,271.672,170.333,461.8,300,347.657c60.767-53.4,105.009-86.618,153.428-92.844,57.043-7.184,116.966,22.689,213.512,93.051C789.87,437.24,817.521,322.807,865.932,229.43c22.074-42.578,46.757-81.728,85.491-94.647,124.405-41.684,189.224,182.937,414.346,146.652" transform="translate(-0.459 -128.892)" fill="none" stroke="#de4013" stroke-miterlimit="10" stroke-width="2"/>
        </g>
      </g>
    </g>
    <g id="Group_109" data-name="Group 109" transform="translate(-7896.703 2200.568)">
      <g id="Group_108" data-name="Group 108" transform="translate(0)">
        <g id="Group_107" data-name="Group 107" clip-path="url(#clip-path-21)">
          <path id="Path_118" data-name="Path 118" d="M.482,274.15c97.8-6.218,168.6,198.246,299.725,81.385,61.28-54.567,105.088-88.148,153.17-94.61,55.87-7.427,116.047,21.558,214.534,92.785,126.03,91.035,151.266-33.024,196.661-132.39,20.613-45.391,44.623-86.087,83.562-98.661,124.642-40.345,189.427,206.335,417.616,168.262" transform="translate(-0.437 -117.472)" fill="none" stroke="#e55c16" stroke-miterlimit="10" stroke-width="2"/>
        </g>
      </g>
    </g>
    <g id="Group_112" data-name="Group 112" transform="translate(-7896.725 2192.349)">
      <g id="Group_111" data-name="Group 111" transform="translate(0 0)">
        <g id="Group_110" data-name="Group 110" clip-path="url(#clip-path-22)">
          <path id="Path_119" data-name="Path 119" d="M.482,273.358c97.811-9.212,167.341,209.592,299.928,90.009s180.38-138.87,368.468-3.857S819.966,149.5,944.844,110.489s189.63,229.732,420.886,189.871" transform="translate(-0.415 -105.896)" fill="none" stroke="#e55c16" stroke-miterlimit="10" stroke-width="2"/>
        </g>
      </g>
    </g>
    <rect id="Rectangle_69" data-name="Rectangle 69" width="1365.997" height="368.992" transform="translate(-7897 2117.372)" fill="none"/>
    <rect id="Rectangle_70" data-name="Rectangle 70" width="1366" height="368.992" transform="translate(-7897 2117.372)" fill="none"/>
  </g>
</svg>
