<svg xmlns="http://www.w3.org/2000/svg" width="873.116" height="783.574" viewBox="0 0 873.116 783.574">
  <g id="Group_162" data-name="Group 162" transform="translate(1.918 5.696)">
    <path id="Path_87" data-name="Path 87" d="M441.894,603.58C349.39,737.5,252.778,768.348,183.515,759.755c238.139,81.657,375.028-250.541,534.275-508.98C884.564-19.867,1055.3-3.2,1055.3-3.2c-12.164-3.608-23.568,6.966-35.3,4.614-363.835,59.812-450.977,418.13-578.1,602.168" transform="translate(-184.098 5.525)" fill="#de4013"/>
    <path id="Path_88" data-name="Path 88" d="M492.922,624.6C619.985,436.2,741.679,63.219,1105.342,1.99,844.889-51.318,674.195,227.025,644.866,267.546,614.215,309.888,512.923,497.987,429.04,624.6s-195.728,141.63-195.728,141.63c11.838,8.528,44.347,0,44.347,0s44.227.689,99.025-29.549C413.8,716.2,455.476,680.125,492.922,624.6" transform="translate(-235.23 -0.929)" fill="#e55c16"/>
  </g>
</svg>
